<svg width="26" height="26" viewBox="0 0 26 26" fill="none" xmlns="http://www.w3.org/2000/svg">
<path fill-rule="evenodd" clip-rule="evenodd" d="M9.93029 1C11.3746 1.00006 12.6097 1.90609 13.0783 3.16765C13.5929 2.20912 14.6132 1.54834 15.7906 1.54834C17.4824 1.54834 18.8603 2.90206 18.8603 4.56423C18.8603 5.58382 18.3425 6.48557 17.5522 7.03177H24.7209C24.867 7.03177 25 7.16243 25 7.30594V12.241C25 12.3845 24.867 12.5152 24.7209 12.5152H23.3256V24.3046C23.3256 24.4481 23.1926 24.5787 23.0465 24.5787H2.95349C2.80741 24.5787 2.67442 24.4481 2.67442 24.3046V12.5152H1.27907C1.13299 12.5152 1 12.3845 1 12.241V7.30594C1 7.16243 1.13299 7.03177 1.27907 7.03177H8.07274C7.1723 6.44167 6.58145 5.43066 6.58145 4.29006C6.58145 2.47581 8.08363 1 9.93029 1ZM9.93018 1.54846C8.38546 1.54846 7.13947 2.77258 7.13947 4.29016C7.13947 5.80775 8.38546 7.03186 9.93018 7.03186H12.7209V4.29016C12.7209 2.77258 11.4749 1.54846 9.93018 1.54846ZM13.279 4.56458C13.279 3.19907 14.4007 2.09705 15.7906 2.09705C17.1805 2.09705 18.3022 3.19907 18.3022 4.56458C18.3022 5.93008 17.1805 7.0321 15.7906 7.0321H13.279V4.56458ZM24.4418 7.58008H15.5116V11.9669H24.4418V7.58008ZM11.0464 7.58008H14.9534V11.9669H11.0464V7.58008ZM10.4883 7.58008H1.55811V11.9669H10.4883V7.58008ZM15.5116 12.5153H22.7674V24.0304H15.5116V12.5153ZM14.9534 12.5153H11.0464V24.0304H14.9534V12.5153ZM3.23248 12.5153H10.4883V24.0304H3.23248V12.5153Z" fill="#FF6440"/>
<path d="M13.0783 3.16765L12.6096 3.34177L12.9952 4.37967L13.5189 3.40414L13.0783 3.16765ZM9.93029 1L9.93031 0.5H9.93029V1ZM17.5522 7.03177L17.2679 6.62044L15.9493 7.53177H17.5522V7.03177ZM23.3256 12.5152V12.0152H22.8256V12.5152H23.3256ZM2.67442 12.5152H3.17442V12.0152H2.67442V12.5152ZM8.07274 7.03177V7.53177H9.74791L8.34681 6.61357L8.07274 7.03177ZM12.7209 7.03186V7.53186H13.2209V7.03186H12.7209ZM13.279 7.0321H12.779V7.5321H13.279V7.0321ZM15.5116 7.58008V7.08008H15.0116V7.58008H15.5116ZM24.4418 7.58008H24.9418V7.08008H24.4418V7.58008ZM15.5116 11.9669H15.0116V12.4669H15.5116V11.9669ZM24.4418 11.9669V12.4669H24.9418V11.9669H24.4418ZM14.9534 7.58008H15.4534V7.08008H14.9534V7.58008ZM11.0464 7.58008V7.08008H10.5464V7.58008H11.0464ZM14.9534 11.9669V12.4669H15.4534V11.9669H14.9534ZM11.0464 11.9669H10.5464V12.4669H11.0464V11.9669ZM1.55811 7.58008V7.08008H1.05811V7.58008H1.55811ZM10.4883 7.58008H10.9883V7.08008H10.4883V7.58008ZM1.55811 11.9669H1.05811V12.4669H1.55811V11.9669ZM10.4883 11.9669V12.4669H10.9883V11.9669H10.4883ZM22.7674 12.5153H23.2674V12.0153H22.7674V12.5153ZM15.5116 12.5153V12.0153H15.0116V12.5153H15.5116ZM22.7674 24.0304V24.5304H23.2674V24.0304H22.7674ZM15.5116 24.0304H15.0116V24.5304H15.5116V24.0304ZM11.0464 12.5153V12.0153H10.5464V12.5153H11.0464ZM14.9534 12.5153H15.4534V12.0153H14.9534V12.5153ZM11.0464 24.0304H10.5464V24.5304H11.0464V24.0304ZM14.9534 24.0304V24.5304H15.4534V24.0304H14.9534ZM10.4883 12.5153H10.9883V12.0153H10.4883V12.5153ZM3.23248 12.5153V12.0153H2.73248V12.5153H3.23248ZM10.4883 24.0304V24.5304H10.9883V24.0304H10.4883ZM3.23248 24.0304H2.73248V24.5304H3.23248V24.0304ZM13.547 2.99354C13.0067 1.53913 11.5869 0.500066 9.93031 0.5L9.93027 1.5C11.1624 1.50005 12.2126 2.27306 12.6096 3.34177L13.547 2.99354ZM15.7906 1.04834C14.4219 1.04834 13.236 1.81678 12.6378 2.93117L13.5189 3.40414C13.9498 2.60146 14.8046 2.04834 15.7906 2.04834V1.04834ZM19.3603 4.56423C19.3603 2.61761 17.7502 1.04834 15.7906 1.04834V2.04834C17.2147 2.04834 18.3603 3.18652 18.3603 4.56423H19.3603ZM17.8365 7.4431C18.7533 6.80943 19.3603 5.75814 19.3603 4.56423H18.3603C18.3603 5.40949 17.9317 6.16171 17.2679 6.62044L17.8365 7.4431ZM24.7209 6.53177H17.5522V7.53177H24.7209V6.53177ZM25.5 7.30594C25.5 6.87798 25.1348 6.53177 24.7209 6.53177V7.53177C24.6452 7.53177 24.5934 7.49974 24.5648 7.47171C24.5365 7.4439 24.5 7.38906 24.5 7.30594H25.5ZM25.5 12.241V7.30594H24.5V12.241H25.5ZM24.7209 13.0152C25.1348 13.0152 25.5 12.669 25.5 12.241H24.5C24.5 12.1579 24.5365 12.1031 24.5648 12.0753C24.5934 12.0472 24.6452 12.0152 24.7209 12.0152V13.0152ZM23.3256 13.0152H24.7209V12.0152H23.3256V13.0152ZM23.8256 24.3046V12.5152H22.8256V24.3046H23.8256ZM23.0465 25.0787C23.4603 25.0787 23.8256 24.7325 23.8256 24.3046H22.8256C22.8256 24.2214 22.8621 24.1666 22.8904 24.1388C22.919 24.1108 22.9707 24.0787 23.0465 24.0787V25.0787ZM2.95349 25.0787H23.0465V24.0787H2.95349V25.0787ZM2.17442 24.3046C2.17442 24.7325 2.53965 25.0787 2.95349 25.0787V24.0787C3.02925 24.0787 3.08105 24.1108 3.10958 24.1388C3.13789 24.1666 3.17442 24.2214 3.17442 24.3046H2.17442ZM2.17442 12.5152V24.3046H3.17442V12.5152H2.17442ZM1.27907 13.0152H2.67442V12.0152H1.27907V13.0152ZM0.5 12.241C0.5 12.669 0.865234 13.0152 1.27907 13.0152V12.0152C1.35483 12.0152 1.40663 12.0472 1.43517 12.0753C1.46347 12.1031 1.5 12.1579 1.5 12.241H0.5ZM0.5 7.30594V12.241H1.5V7.30594H0.5ZM1.27907 6.53177C0.865235 6.53177 0.5 6.87798 0.5 7.30594H1.5C1.5 7.38906 1.46347 7.4439 1.43517 7.47171C1.40663 7.49974 1.35483 7.53177 1.27907 7.53177V6.53177ZM8.07274 6.53177H1.27907V7.53177H8.07274V6.53177ZM6.08145 4.29006C6.08145 5.60764 6.76442 6.77217 7.79868 7.44997L8.34681 6.61357C7.58018 6.11117 7.08145 5.25368 7.08145 4.29006H6.08145ZM9.93029 0.5C7.81587 0.5 6.08145 2.19136 6.08145 4.29006H7.08145C7.08145 2.76026 8.35139 1.5 9.93029 1.5V0.5ZM7.63947 4.29016C7.63947 3.05703 8.65322 2.04846 9.93018 2.04846V1.04846C8.11771 1.04846 6.63947 2.48812 6.63947 4.29016H7.63947ZM9.93018 6.53186C8.65322 6.53186 7.63947 5.52329 7.63947 4.29016H6.63947C6.63947 6.0922 8.11771 7.53186 9.93018 7.53186V6.53186ZM12.7209 6.53186H9.93018V7.53186H12.7209V6.53186ZM12.2209 4.29016V7.03186H13.2209V4.29016H12.2209ZM9.93018 2.04846C11.2071 2.04846 12.2209 3.05703 12.2209 4.29016H13.2209C13.2209 2.48812 11.7426 1.04846 9.93018 1.04846V2.04846ZM15.7906 1.59705C14.133 1.59705 12.779 2.91462 12.779 4.56458H13.779C13.779 3.48353 14.6685 2.59705 15.7906 2.59705V1.59705ZM18.8022 4.56458C18.8022 2.91462 17.4483 1.59705 15.7906 1.59705V2.59705C16.9128 2.59705 17.8022 3.48353 17.8022 4.56458H18.8022ZM15.7906 7.5321C17.4483 7.5321 18.8022 6.21453 18.8022 4.56458H17.8022C17.8022 5.64562 16.9128 6.5321 15.7906 6.5321V7.5321ZM13.279 7.5321H15.7906V6.5321H13.279V7.5321ZM12.779 4.56458V7.0321H13.779V4.56458H12.779ZM15.5116 8.08008H24.4418V7.08008H15.5116V8.08008ZM16.0116 11.9669V7.58008H15.0116V11.9669H16.0116ZM24.4418 11.4669H15.5116V12.4669H24.4418V11.4669ZM23.9418 7.58008V11.9669H24.9418V7.58008H23.9418ZM14.9534 7.08008H11.0464V8.08008H14.9534V7.08008ZM15.4534 11.9669V7.58008H14.4534V11.9669H15.4534ZM11.0464 12.4669H14.9534V11.4669H11.0464V12.4669ZM10.5464 7.58008V11.9669H11.5464V7.58008H10.5464ZM1.55811 8.08008H10.4883V7.08008H1.55811V8.08008ZM2.05811 11.9669V7.58008H1.05811V11.9669H2.05811ZM10.4883 11.4669H1.55811V12.4669H10.4883V11.4669ZM9.98828 7.58008V11.9669H10.9883V7.58008H9.98828ZM22.7674 12.0153H15.5116V13.0153H22.7674V12.0153ZM23.2674 24.0304V12.5153H22.2674V24.0304H23.2674ZM15.5116 24.5304H22.7674V23.5304H15.5116V24.5304ZM15.0116 12.5153V24.0304H16.0116V12.5153H15.0116ZM11.0464 13.0153H14.9534V12.0153H11.0464V13.0153ZM11.5464 24.0304V12.5153H10.5464V24.0304H11.5464ZM14.9534 23.5304H11.0464V24.5304H14.9534V23.5304ZM14.4534 12.5153V24.0304H15.4534V12.5153H14.4534ZM10.4883 12.0153H3.23248V13.0153H10.4883V12.0153ZM10.9883 24.0304V12.5153H9.98828V24.0304H10.9883ZM3.23248 24.5304H10.4883V23.5304H3.23248V24.5304ZM2.73248 12.5153V24.0304H3.73248V12.5153H2.73248Z" fill="#FF6440"/>
</svg>
