<svg xmlns="http://www.w3.org/2000/svg" width="50" height="50" fill="none" viewBox="0 0 50 50"><path fill="#FF6440" d="M14.1646 22.5005H8.3321C7.87195 22.5005 7.4989 22.8736 7.4989 23.3338V31.6659C7.4989 32.126 7.87195 32.4991 8.3321 32.4991H14.1646C14.6248 32.4991 14.9978 32.126 14.9978 31.6659V23.3338C14.9978 22.8736 14.6248 22.5005 14.1646 22.5005ZM13.3314 30.8327H9.16531V24.167H13.3314V30.8327Z"/><path fill="#FF6440" d="M28.3292 22.5005H22.4967C22.0366 22.5005 21.6635 22.8736 21.6635 23.3338V31.6659C21.6635 32.126 22.0366 32.4991 22.4967 32.4991H28.3292C28.7894 32.4991 29.1624 32.126 29.1624 31.6659V23.3338C29.1624 22.8736 28.7894 22.5005 28.3292 22.5005ZM27.496 30.8327H23.33V24.167H27.496V30.8327Z"/><path fill="#FF6440" d="M28.3292 35.8318H22.4967C22.0366 35.8318 21.6635 36.2048 21.6635 36.665V44.9971C21.6635 45.4573 22.0366 45.8303 22.4967 45.8303H28.3292C28.7894 45.8303 29.1624 45.4573 29.1624 44.9971V36.665C29.1624 36.2049 28.7894 35.8318 28.3292 35.8318ZM27.496 44.1639H23.33V37.4982H27.496V44.1639Z"/><path fill="#FF6440" d="M41.6608 22.5005H35.8283C35.3682 22.5005 34.9951 22.8736 34.9951 23.3338V31.6659C34.9951 32.126 35.3682 32.4991 35.8283 32.4991H41.6608C42.121 32.4991 42.494 32.126 42.494 31.6659V23.3338C42.494 22.8736 42.121 22.5005 41.6608 22.5005ZM40.8276 30.8327H36.6616V24.167H40.8276V30.8327Z"/><path fill="#FF6440" d="M14.1646 35.8318H8.3321C7.87195 35.8318 7.4989 36.2048 7.4989 36.665V44.9971C7.4989 45.4573 7.87195 45.8303 8.3321 45.8303H14.1646C14.6248 45.8303 14.9978 45.4573 14.9978 44.9971V36.665C14.9978 36.2049 14.6248 35.8318 14.1646 35.8318ZM13.3314 44.1639H9.16531V37.4982H13.3314V44.1639Z"/><path fill="#FF6440" d="M41.6608 35.8318H35.8283C35.3682 35.8318 34.9951 36.2048 34.9951 36.665V44.9971C34.9951 45.4573 35.3682 45.8303 35.8283 45.8303H41.6608C42.121 45.8303 42.494 45.4573 42.494 44.9971V36.665C42.494 36.2049 42.121 35.8318 41.6608 35.8318ZM40.8276 44.1639H36.6616V37.4982H40.8276V44.1639Z"/><path fill="#FF6440" d="M46.66 48.3292V19.9999H47.4932C47.9533 19.9999 48.3264 19.6268 48.3264 19.1667V15.0007C48.3264 14.5405 47.9533 14.1675 47.4932 14.1675H46.66V10.8346C46.66 10.3745 46.2869 10.0014 45.8268 10.0014H44.1604V0.836011C44.1604 0.375854 43.7873 0.00280762 43.3271 0.00280762H6.66572C6.20557 0.00280762 5.83252 0.375854 5.83252 0.836011V10.0013H4.16611C3.70596 10.0013 3.33291 10.3744 3.33291 10.8345V14.1674H2.49971C2.03955 14.1674 1.6665 14.5404 1.6665 15.0006V19.1666C1.6665 19.6267 2.03955 19.9998 2.49971 19.9998H3.33291V48.329H0V49.9954H4.16611H45.8268H50V48.329H46.66V48.3292ZM7.49893 1.66921H42.4938V10.0013H7.49893V1.66921ZM4.99932 11.6677H6.66572H43.3271H44.9935V14.1674H4.99932V11.6677ZM44.9935 48.3292H4.99932V19.9999H44.9936V48.3292H44.9935ZM4.16611 18.3335H3.33291V15.8339H4.16611H45.8268H46.66V18.3335H45.8268H4.16611Z"/><path fill="#FF6440" d="M23.7164 4.52067C23.5839 4.18199 23.3978 3.88951 23.1577 3.64332C22.9178 3.39713 22.629 3.20397 22.2916 3.06403C21.9541 2.92408 21.5805 2.85406 21.1705 2.85406C20.7605 2.85406 20.3862 2.9234 20.0476 3.06217C19.7089 3.20094 19.4189 3.39401 19.1777 3.64147C18.9365 3.88893 18.7497 4.18199 18.6172 4.52076C18.4847 4.85944 18.4185 5.2275 18.4185 5.62496C18.4185 6.02242 18.4847 6.39049 18.6172 6.72916C18.7497 7.06783 18.9365 7.3609 19.1777 7.60846C19.4189 7.85592 19.7089 8.04899 20.0476 8.18776C20.3862 8.32653 20.7605 8.39586 21.1705 8.39586C21.5805 8.39586 21.9541 8.32653 22.2916 8.18776C22.6291 8.04908 22.9178 7.85592 23.1577 7.60846C23.3977 7.361 23.5839 7.06793 23.7164 6.72916C23.8489 6.39049 23.9151 6.02242 23.9151 5.62496C23.9151 5.2274 23.8488 4.85934 23.7164 4.52067ZM22.7621 6.42535C22.6834 6.66158 22.5702 6.86158 22.4228 7.02526C22.2753 7.18903 22.0959 7.31461 21.8847 7.40211C21.6734 7.48961 21.4354 7.53336 21.1704 7.53336C20.9055 7.53336 20.6667 7.48961 20.4543 7.40211C20.2418 7.31461 20.0612 7.18903 19.9125 7.02526C19.7638 6.86149 19.6494 6.66158 19.5694 6.42535C19.4895 6.18912 19.4494 5.92233 19.4494 5.62487C19.4494 5.3274 19.4895 5.06061 19.5694 4.82438C19.6494 4.58815 19.7638 4.38756 19.9125 4.22262C20.0612 4.05768 20.2418 3.93141 20.4543 3.84391C20.6668 3.75641 20.9055 3.71266 21.1704 3.71266C21.4354 3.71266 21.6734 3.75641 21.8847 3.84391C22.0959 3.93141 22.2752 4.05768 22.4228 4.22262C22.5702 4.38756 22.6833 4.58815 22.7621 4.82438C22.8408 5.06061 22.8802 5.3274 22.8802 5.62487C22.8802 5.92233 22.8409 6.18912 22.7621 6.42535Z"/><path fill="#FF6440" d="M16.6039 2.91412V5.24625H14.0618V2.91412H13.0457V8.3358H14.0618V5.96617H16.6039V8.3358H17.62V2.91412H16.6039Z"/><path fill="#FF6440" d="M34.1817 7.50338V2.91412H33.173V8.3358H36.3526V7.50338H34.1817Z"/><path fill="#FF6440" d="M23.9605 2.91412V3.74274H25.5991V8.3358H26.6077V3.74274H28.2386V2.91412H23.9605Z"/><path fill="#FF6440" d="M32.2994 3.71647V2.91412H28.8798V8.3358H32.2994V7.52965H29.8959V5.99615H31.7894V5.21998H29.8959V3.71647H32.2994Z"/></svg>