<svg xmlns="http://www.w3.org/2000/svg" width="100" height="100" fill="none" viewBox="0 0 100 100"><path fill="#000" fill-opacity=".65" d="M88.0762 20.2734H18.4473C13.0957 20.2734 8.78906 15.9668 8.78906 10.6152C8.78906 5.26367 13.0859 0.957031 18.4375 0.957031H78.7012C80.3613 0.957031 81.6895 2.28516 81.6895 3.94531C81.6895 5.60547 80.3711 6.92383 78.7012 6.92383H18.4375C16.4258 6.92383 14.8047 8.54492 14.8047 10.5566C14.8047 12.5684 16.4258 14.1895 18.4375 14.1895H88.125C89.7852 14.1895 91.1133 15.5176 91.1133 17.1777C91.0742 18.9453 89.7461 20.2734 88.0762 20.2734V20.2734ZM88.0762 99.0234H18.4473C13.0957 99.0234 8.78906 94.7168 8.78906 89.3652C8.78906 87.7051 10.1172 86.377 11.7773 86.377C13.4375 86.377 14.7461 87.6953 14.7461 89.3652C14.7461 91.3769 16.3672 92.998 18.3789 92.998H88.0664C89.7266 92.998 91.0547 94.3262 91.0547 95.9863C91.0742 97.6953 89.7461 99.0234 88.0762 99.0234V99.0234ZM11.7773 92.3633C10.1172 92.3633 8.78906 91.0352 8.78906 89.375V10.6152C8.78906 8.95508 10.1172 7.62695 11.7773 7.62695C13.4375 7.62695 14.7656 8.95508 14.7656 10.6152V89.375C14.7656 91.0352 13.4375 92.3633 11.7773 92.3633V92.3633ZM88.0762 99.0234C86.416 99.0234 85.0879 97.6953 85.0879 96.0352V17.2754C85.0879 15.6152 86.416 14.2871 88.0762 14.2871C89.7363 14.2871 91.0645 15.6152 91.0645 17.2754V96.0352C91.0742 97.6953 89.7461 99.0234 88.0762 99.0234ZM78.6621 20.2734C77.002 20.2734 75.6738 18.9453 75.6738 17.2852V3.93555C75.6738 2.27539 77.002 0.947266 78.6621 0.947266C80.3223 0.947266 81.6504 2.27539 81.6504 3.93555V17.2266C81.6504 18.9453 80.3223 20.2734 78.6621 20.2734V20.2734ZM68.7598 39.8437H29.7754C28.1152 39.8437 26.7871 38.4766 26.7871 36.8555C26.7871 35.1953 28.1152 33.8672 29.7754 33.8672H68.7598C70.4199 33.8672 71.748 35.1953 71.748 36.8555C71.748 38.5156 70.4199 39.8437 68.7598 39.8437ZM51.2988 53.4766H29.7754C28.1152 53.4766 26.7871 52.1094 26.7871 50.4883C26.7871 48.8281 28.1152 47.5 29.7754 47.5H51.2988C52.959 47.5 54.2871 48.8281 54.2871 50.4883C54.3359 52.1484 52.9687 53.4766 51.2988 53.4766Z"/></svg>