<svg width="25" height="25" viewBox="0 0 25 25" fill="none" xmlns="http://www.w3.org/2000/svg">
<path fill-rule="evenodd" clip-rule="evenodd" d="M6.8814 1H1V24.1154H24.5284V3.88907L15.7049 8.9453V3.88907L6.8814 8.9453V1ZM5.41173 2.44454V9.75044L3.93791 10.5875L4.68792 11.8391L14.2354 6.40488V9.73688L12.7367 10.5915L13.5033 11.8525L23.0588 6.40485V22.672H2.4696V2.44434H5.4117L5.41173 2.44454ZM5.41174 15.4469H8.35242V18.3383L5.41174 18.3369V15.4469ZM14.2354 15.4469H11.2932V18.3369H14.234L14.2354 15.4469ZM17.176 15.4469H20.1182L20.1168 18.3369H17.176V15.4469Z" fill="#FF6440"/>
<path d="M1 1V0.75H0.75V1H1ZM6.8814 1H7.1314V0.75H6.8814V1ZM1 24.1154H0.75V24.3654H1V24.1154ZM24.5284 24.1154V24.3654H24.7784V24.1154H24.5284ZM24.5284 3.88907H24.7784V3.45767L24.4041 3.67216L24.5284 3.88907ZM15.7049 8.9453H15.4549V9.37669L15.8292 9.16221L15.7049 8.9453ZM15.7049 3.88907H15.9549V3.45768L15.5806 3.67216L15.7049 3.88907ZM6.8814 8.9453H6.6314V9.37669L7.0057 9.16221L6.8814 8.9453ZM5.41173 9.75044L5.5352 9.96783L5.66173 9.89596V9.75044H5.41173ZM5.41173 2.44454H5.66173V2.42349L5.65821 2.40273L5.41173 2.44454ZM3.93791 10.5875L3.81445 10.3701L3.59193 10.4965L3.72347 10.716L3.93791 10.5875ZM4.68792 11.8391L4.47347 11.9676L4.59913 12.1772L4.81158 12.0563L4.68792 11.8391ZM14.2354 6.40488H14.4854V5.97493L14.1117 6.18761L14.2354 6.40488ZM14.2354 9.73688L14.3592 9.95405L14.4854 9.88211V9.73688H14.2354ZM12.7367 10.5915L12.6129 10.3744L12.3896 10.5017L12.5231 10.7214L12.7367 10.5915ZM13.5033 11.8525L13.2897 11.9824L13.4159 12.1901L13.6271 12.0697L13.5033 11.8525ZM23.0588 6.40485H23.3088V5.97455L22.935 6.18766L23.0588 6.40485ZM23.0588 22.672V22.922H23.3088V22.672H23.0588ZM2.4696 22.672H2.2196V22.922H2.4696V22.672ZM2.4696 2.44434V2.19434H2.2196V2.44434H2.4696ZM5.4117 2.44434L5.65817 2.40253L5.62286 2.19434H5.4117V2.44434ZM8.35242 15.4469H8.60242V15.1969H8.35242V15.4469ZM5.41174 15.4469V15.1969H5.16174V15.4469H5.41174ZM8.35242 18.3383L8.3523 18.5883L8.60242 18.5884V18.3383H8.35242ZM5.41174 18.3369H5.16174V18.5868L5.41163 18.5869L5.41174 18.3369ZM11.2932 15.4469V15.1969H11.0432V15.4469H11.2932ZM14.2354 15.4469L14.4854 15.447L14.4855 15.1969H14.2354V15.4469ZM11.2932 18.3369H11.0432V18.5869H11.2932V18.3369ZM14.234 18.3369V18.5869H14.4839L14.484 18.337L14.234 18.3369ZM20.1182 15.4469L20.3682 15.447L20.3683 15.1969H20.1182V15.4469ZM17.176 15.4469V15.1969H16.926V15.4469H17.176ZM20.1168 18.3369V18.5869H20.3667L20.3668 18.337L20.1168 18.3369ZM17.176 18.3369H16.926V18.5869H17.176V18.3369ZM1 1.25H6.8814V0.75H1V1.25ZM1.25 24.1154V1H0.75V24.1154H1.25ZM24.5284 23.8654H1V24.3654H24.5284V23.8654ZM24.2784 3.88907V24.1154H24.7784V3.88907H24.2784ZM15.8292 9.16221L24.6527 4.10598L24.4041 3.67216L15.5806 8.72839L15.8292 9.16221ZM15.4549 3.88907V8.9453H15.9549V3.88907H15.4549ZM7.0057 9.16221L15.8292 4.10598L15.5806 3.67216L6.75711 8.72839L7.0057 9.16221ZM6.6314 1V8.9453H7.1314V1H6.6314ZM5.66173 9.75044V2.44454H5.16173V9.75044H5.66173ZM4.06138 10.8049L5.5352 9.96783L5.28826 9.53306L3.81445 10.3701L4.06138 10.8049ZM4.90236 11.7105L4.15236 10.459L3.72347 10.716L4.47347 11.9676L4.90236 11.7105ZM14.1117 6.18761L4.56425 11.6218L4.81158 12.0563L14.359 6.62215L14.1117 6.18761ZM14.4854 9.73688V6.40488H13.9854V9.73688H14.4854ZM12.8606 10.8087L14.3592 9.95405L14.1115 9.51972L12.6129 10.3744L12.8606 10.8087ZM13.7169 11.7227L12.9504 10.4617L12.5231 10.7214L13.2897 11.9824L13.7169 11.7227ZM22.935 6.18766L13.3795 11.6354L13.6271 12.0697L23.1827 6.62203L22.935 6.18766ZM23.3088 22.672V6.40485H22.8088V22.672H23.3088ZM2.4696 22.922H23.0588V22.422H2.4696V22.922ZM2.2196 2.44434V22.672H2.7196V2.44434H2.2196ZM5.4117 2.19434H2.4696V2.69434H5.4117V2.19434ZM5.65821 2.40273L5.65817 2.40253L5.16522 2.48615L5.16525 2.48635L5.65821 2.40273ZM8.35242 15.1969H5.41174V15.6969H8.35242V15.1969ZM8.60242 18.3383V15.4469H8.10242V18.3383H8.60242ZM5.41163 18.5869L8.3523 18.5883L8.35253 18.0883L5.41186 18.0869L5.41163 18.5869ZM5.16174 15.4469V18.3369H5.66174V15.4469H5.16174ZM11.2932 15.6969H14.2354V15.1969H11.2932V15.6969ZM11.5432 18.3369V15.4469H11.0432V18.3369H11.5432ZM14.234 18.0869H11.2932V18.5869H14.234V18.0869ZM13.9854 15.4468L13.984 18.3368L14.484 18.337L14.4854 15.447L13.9854 15.4468ZM20.1182 15.1969H17.176V15.6969H20.1182V15.1969ZM20.3668 18.337L20.3682 15.447L19.8682 15.4468L19.8668 18.3368L20.3668 18.337ZM17.176 18.5869H20.1168V18.0869H17.176V18.5869ZM16.926 15.4469V18.3369H17.426V15.4469H16.926Z" fill="#FF6440"/>
</svg>
