<svg xmlns="http://www.w3.org/2000/svg" xmlns:xlink="http://www.w3.org/1999/xlink" viewBox="0 0 68.59 57.06"><defs><style>.cls-1{fill:url(#未命名的渐变_5);}.cls-2{fill:url(#未命名的渐变_5-2);}.cls-3{fill:url(#未命名的渐变_5-3);}</style><linearGradient id="未命名的渐变_5" x1="8.33" y1="6.39" x2="82.92" y2="61.23" gradientUnits="userSpaceOnUse"><stop offset="0" stop-color="#f7941d"/><stop offset="0.71" stop-color="#ed037c"/></linearGradient><linearGradient id="未命名的渐变_5-2" x1="15.14" y1="-1.74" x2="88.85" y2="52.45" xlink:href="#未命名的渐变_5"/><linearGradient id="未命名的渐变_5-3" x1="-347.21" y1="132.47" x2="-314.93" y2="156.21" gradientTransform="translate(366.6 -92.91)" xlink:href="#未命名的渐变_5"/></defs><title>Asset 2</title><g id="Layer_2" data-name="Layer 2"><g id="图层_1" data-name="图层 1"><path class="cls-1" d="M45.54,28.31c.12-.1.23-.2.35-.32a16.44,16.44,0,0,0,1.24-21.8A14.68,14.68,0,0,0,45.89,4.8a15.73,15.73,0,0,0-2.65-2.14h0l-.51-.32L42.3,2.1l-.76-.4a8.75,8.75,0,0,0-.83-.37l-.22-.1c-.25-.1-.5-.2-.75-.28L39.3.81a2.78,2.78,0,0,0-.38-.12,1.34,1.34,0,0,0-.27-.07A3.6,3.6,0,0,0,38.21.5L37.56.36C37.26.3,37,.24,36.65.2L36,.12a17.16,17.16,0,0,0-3.51,0L31.92.2c-.52.08-1,.18-1.55.3a3.17,3.17,0,0,0-.44.12l-.27.07a2.4,2.4,0,0,0-.38.12L28.84,1c-.25.08-.5.18-.75.28s-.62.26-.92.41l-.53.26-.57.31c-.25.14-.49.29-.73.45A15.73,15.73,0,0,0,22.69,4.8a16,16,0,0,0-1.24,1.39,16.43,16.43,0,0,0,.06,20.5l0,0,.6.6c.19.22.4.44.61.65s.31.29.46.42l5,4.95a.9.9,0,0,0,1.28,0l2.26-2.25a.92.92,0,0,0,0-1.29l-3.1-3.09-2.06-2-.26-.23a11.43,11.43,0,0,1,0-16.13l.25-.24L27,7.68c.26-.22.54-.43.81-.63a11.47,11.47,0,0,1,1.3-.78,7.3,7.3,0,0,1,.9-.41,7.46,7.46,0,0,1,.94-.33l.47-.14.48-.11a4,4,0,0,1,.48-.09,11.24,11.24,0,0,1,3.17-.1l.42,0c.26,0,.53.08.79.14l.42.1a12.74,12.74,0,0,1,2.12.75l.1,0c.19.12.39.21.59.33a3.28,3.28,0,0,1,.43.26,4,4,0,0,1,.43.28c.27.2.55.41.81.63L42,8l.31.3a11.41,11.41,0,0,1,0,16.12L31.42,35.36,26,40.79a.9.9,0,0,1-1.28,0l-14-14-2.06-2-.26-.23A11.38,11.38,0,0,1,18.22,5.17a.91.91,0,0,0,.86-.34,19.37,19.37,0,0,1,2.37-2.59A.91.91,0,0,0,21.1.7a16.39,16.39,0,0,0-17.48,26l0,0,.6.6c.19.22.4.44.61.65s.31.29.46.42L24.7,47.85a.89.89,0,0,0,1.28,0L45.44,28.4Z"/><path class="cls-2" d="M63.79,4.77A16.52,16.52,0,0,0,47.5.67a.91.91,0,0,0-.35,1.54A19.5,19.5,0,0,1,49.53,4.8a.88.88,0,0,0,.86.33,11.38,11.38,0,0,1,9.87,19.29l-17,17-.26.27-2.76-2.8a.9.9,0,0,0-1.28,0l-2,2a.89.89,0,0,0,0,1.28l5.66,5.69a.9.9,0,0,0,1.28,0L63.36,28.35l.08-.06.35-.33A16.4,16.4,0,0,0,63.79,4.77Z"/><rect class="cls-3" x="29.36" y="45.59" width="9.81" height="9.81" rx="0.91" transform="translate(45.74 -9.44) rotate(45)"/></g></g></svg>