<svg xmlns="http://www.w3.org/2000/svg" width="88" height="99" fill="none" viewBox="0 0 88 99"><path fill="#000" fill-opacity=".65" d="M49 14.2762H46.375V11.728C46.375 10.4385 45.0625 9.17973 43.7812 9.17973C42.4688 9.17973 41.1875 10.4692 41.1875 11.728V14.3069H38.5625C37.25 14.3069 35.9688 15.5963 35.9688 16.8551C35.9688 18.1446 37.2812 19.4033 38.5625 19.4033H41.1875V21.9822C41.1875 23.2717 42.5 24.5305 43.7812 24.5305C45.0938 24.5305 46.375 23.241 46.375 21.9822V19.4033H49C50.3125 19.4033 51.5938 18.1139 51.5938 16.8551C51.625 15.5656 50.3125 14.2762 49 14.2762ZM79.3438 92.7798H53.3438L51.6875 90.3237L56.3438 86.7623L65.6562 79.9466C67.5625 78.5957 68.4063 75.8633 67.5625 73.6835L64 64.688C74.6562 68.4949 82.3438 78.5957 82.3438 90.3544C82.23 91.0482 81.8625 91.6774 81.3102 92.1239C80.7578 92.5705 80.0586 92.8037 79.3438 92.7798ZM5.46875 90.0473C5.46875 78.0431 13.125 67.9423 23.8125 64.3809L20.25 73.3765C19.4375 75.5563 19.9688 78.2887 22.1562 79.6396L31.4688 86.4553L39.125 92.4728H8.21875C6.5625 92.7798 5.46875 91.7052 5.46875 90.0473ZM21.9062 36.8417C27.0938 34.9382 34.5 32.7584 43.7812 32.7584C46.5312 32.7584 48.9688 33.0348 51.7188 33.3111C53.0938 33.5874 54.7188 32.4821 54.7188 30.855C55 29.5041 53.9062 27.8462 52.25 27.8462C49.5312 27.5699 46.5 27.2936 43.7812 27.2936C34.4688 27.2936 26.5312 29.4734 21.9062 31.1006V8.99552C28.9688 6.63151 36.3437 5.43416 43.7812 5.46486C53.9062 5.46486 61.5625 7.64466 65.6562 9.02623V31.1313C64.8438 30.855 63.75 30.5786 62.6563 30.026C61.2813 29.4734 59.6562 30.3023 59.375 31.9295C59.0938 32.6049 59.1563 33.3725 59.5313 34.0172C59.9063 34.6619 60.5625 35.0918 61.2812 35.2146C62.8438 35.7058 64.4062 36.2584 65.9375 36.8417V38.1926C65.9375 50.1969 56.0938 60.0213 44.0625 60.0213H42.6875C31.1875 59.1924 22.1562 49.3679 22.1562 37.3637V36.8417H21.9062ZM47.3438 84.0606L58.8438 66.8678L62.4062 75.3414L53.0938 82.4334L48.7188 85.9641L47.3438 84.0606ZM32.8438 63.0301C35.6338 64.4548 38.7306 65.2023 41.875 65.2099H43.7812C47.625 65.2099 51.4375 64.3809 54.7188 62.7538L44.0625 78.8413L32.8438 63.0301ZM43.7812 89.771L34.4688 82.4027L25.1562 75.587L28.7188 66.8678L44.3125 89.5254L43.7812 89.771ZM62.375 58.1178C67.8438 53.2056 71.125 46.1136 71.125 38.1926V7.09203C71.125 5.98678 70.5625 4.91223 69.4688 4.63592C65.9375 3.28505 56.375 0 43.7812 0C31.1875 0 21.9062 3.28505 18.0625 4.63592C16.9688 5.18854 16.4062 5.98678 16.4062 7.09203V37.118C16.4062 45.3153 19.9688 52.6837 25.4375 58.1178C10.9375 61.4029 0 74.5124 0 90.0473C0 94.6833 3.5625 98.2446 8.21875 98.2446H79.375C84.0312 98.2446 87.5938 94.6833 87.5938 90.0473C87.5625 74.5124 76.875 61.6792 62.375 58.1178Z"/></svg>