<svg width="27" height="26" viewBox="0 0 27 26" fill="none" xmlns="http://www.w3.org/2000/svg">
<path fill-rule="evenodd" clip-rule="evenodd" d="M6.98751 1C5.20573 1.03942 3.84019 1.44637 2.85398 2.18467C1.86902 2.92295 1.30684 3.97551 1.10099 5.15904C0.691515 7.52516 1.5691 10.4442 2.97683 13.3409C4.38455 16.2375 6.35108 19.1022 8.26117 21.2669C9.21624 22.3493 10.1558 23.2559 11.0224 23.9089C11.8889 24.5619 12.6636 24.9998 13.4648 24.9998C14.2661 24.9998 15.0408 24.5619 15.9073 23.9089C16.7738 23.2559 17.7145 22.3492 18.6685 21.2669C20.5775 19.1021 22.5442 16.2375 23.9528 13.3409C25.3605 10.4442 26.2392 7.52522 25.8287 5.15904C25.6239 3.97545 25.0617 2.92289 24.0757 2.18467C23.0907 1.4464 21.7239 1.03944 19.9421 1H19.9278C17.5001 1.01207 15.5688 2.73688 13.7817 4.33287C13.6763 4.42703 13.5713 4.52075 13.4668 4.61364C13.3636 4.52185 13.2599 4.42927 13.1557 4.33624L13.1537 4.33443L13.152 4.33297L13.1515 4.3325C11.3645 2.73662 9.43351 1.0121 7.00587 1H7.00477H6.98751ZM7.00501 2.09082H7.01386C8.91939 2.1055 10.7399 3.70485 12.5931 5.33293C12.7568 5.47682 12.9209 5.62092 13.0852 5.76418H13.0864C13.3022 5.95275 13.6309 5.95275 13.8478 5.76418C14.0137 5.61967 14.1792 5.47429 14.3445 5.32915L14.3445 5.32908L14.3446 5.32901L14.3447 5.32893C16.1969 3.70228 18.015 2.10559 19.9191 2.09082H19.928C21.5393 2.12811 22.6471 2.49031 23.3887 3.04537C24.1312 3.60148 24.5462 4.35893 24.7167 5.33797C25.0553 7.295 24.2862 10.0872 22.9283 12.8805C21.5704 15.6738 19.6503 18.4758 17.8119 20.5594C16.8934 21.6013 15.987 22.4632 15.2101 23.0481C14.4332 23.6329 13.7626 23.9088 13.466 23.9088C13.1694 23.9088 12.4998 23.6329 11.7219 23.0481C10.945 22.4632 10.0386 21.6013 9.12002 20.5594C7.28181 18.4756 5.3616 15.6738 4.00369 12.8805C2.64577 10.0872 1.87663 7.29506 2.21528 5.33797C2.3846 4.35893 2.80071 3.60146 3.5433 3.04537C4.28479 2.49031 5.39257 2.1281 7.00396 2.09082H7.00501ZM7.51923 13C7.51923 9.84338 10.1886 7.27271 13.4665 7.27271C16.7445 7.27271 19.4138 9.84338 19.4138 13C19.4138 16.1566 16.7445 18.7272 13.4665 18.7272C10.1886 18.7272 7.51923 16.1566 7.51923 13ZM13.4669 8.36365C16.1329 8.36365 18.2821 10.4325 18.2821 13C18.2821 15.5675 16.1329 17.6364 13.4669 17.6364C10.8009 17.6364 8.6517 15.5675 8.6517 13C8.6517 10.4325 10.8009 8.36365 13.4669 8.36365ZM12.9016 9.99999C12.895 9.71662 13.1141 9.47692 13.4063 9.44602L13.4063 9.44602C13.5679 9.42897 13.7306 9.47904 13.8501 9.58558C13.9707 9.69211 14.0382 9.84232 14.0338 9.99999V10.2727H14.8837C15.0354 10.2706 15.1814 10.327 15.2899 10.4293C15.3972 10.5316 15.4581 10.6722 15.4581 10.8182C15.4581 10.9641 15.3972 11.1037 15.2899 11.206C15.1814 11.3093 15.0354 11.3658 14.8837 11.3636H13.185C12.7611 11.3636 12.6183 11.5575 12.6183 11.9091C12.6183 12.1882 12.8364 12.4545 13.4683 12.4545C14.5462 12.4545 15.4504 13.1609 15.4504 14.0909C15.4504 14.8622 14.8594 15.5675 14.0338 15.7017V16C14.036 16.146 13.9774 16.2866 13.8711 16.3899C13.7649 16.4943 13.6199 16.5529 13.4683 16.5529C13.3167 16.5529 13.1706 16.4943 13.0643 16.3899C12.9581 16.2866 12.8994 16.146 12.9016 16V15.7273H12.0517C11.9001 15.7294 11.754 15.6729 11.6456 15.5696C11.5382 15.4673 11.4773 15.3278 11.4773 15.1818C11.4773 15.0359 11.5382 14.8952 11.6456 14.793C11.754 14.6907 11.9001 14.6342 12.0517 14.6364H13.7505C14.1743 14.6364 14.3171 14.4425 14.3171 14.0909C14.3171 13.8118 14.0991 13.5454 13.4672 13.5454C12.3892 13.5454 11.4851 12.8391 11.4851 11.9091C11.4851 11.1378 12.0749 10.4325 12.9016 10.2983V9.99999Z" fill="#FF6440"/>
<path d="M2.85398 2.18467L2.70416 1.98454L2.70404 1.98463L2.85398 2.18467ZM6.98751 1L6.98751 0.749939L6.98198 0.750061L6.98751 1ZM1.10099 5.15904L0.854684 5.1162L0.854648 5.11641L1.10099 5.15904ZM2.97683 13.3409L2.75197 13.4501L2.75197 13.4501L2.97683 13.3409ZM8.26117 21.2669L8.44863 21.1014L8.44862 21.1014L8.26117 21.2669ZM11.0224 23.9089L11.1728 23.7092L11.1728 23.7092L11.0224 23.9089ZM15.9073 23.9089L15.7568 23.7092L15.7568 23.7092L15.9073 23.9089ZM18.6685 21.2669L18.481 21.1015L18.4809 21.1016L18.6685 21.2669ZM23.9528 13.3409L24.1776 13.4502L24.1777 13.4501L23.9528 13.3409ZM25.8287 5.15904L25.5823 5.20165L25.5823 5.20178L25.8287 5.15904ZM24.0757 2.18467L23.9257 2.38472L23.9258 2.3848L24.0757 2.18467ZM19.9421 1L19.9477 0.75H19.9421V1ZM19.9278 1L19.9278 0.749997L19.9265 0.750003L19.9278 1ZM13.7817 4.33287L13.6152 4.14641L13.6152 4.14641L13.7817 4.33287ZM13.4668 4.61364L13.3007 4.8005L13.4668 4.94811L13.6329 4.80049L13.4668 4.61364ZM13.1557 4.33624L13.3222 4.14977L13.3222 4.14972L13.1557 4.33624ZM13.1537 4.33443L12.9871 4.52085L12.9872 4.52095L13.1537 4.33443ZM13.152 4.33297L12.9854 4.5193L12.9855 4.51939L13.152 4.33297ZM13.1515 4.3325L13.3182 4.14618L13.318 4.14604L13.1515 4.3325ZM7.00587 1L7.00712 0.75H7.00587V1ZM7.01386 2.09082L7.01579 1.84082H7.01386V2.09082ZM12.5931 5.33293L12.7581 5.14512L12.7581 5.14512L12.5931 5.33293ZM13.0852 5.76418L12.921 5.95265L12.9916 6.01418H13.0852V5.76418ZM13.0864 5.76418L13.2509 5.57593L13.1802 5.51418H13.0864V5.76418ZM13.8478 5.76418L14.0118 5.95286L14.012 5.95269L13.8478 5.76418ZM14.3445 5.32915L14.5094 5.517L14.5095 5.51689L14.3445 5.32915ZM14.3447 5.32893L14.1797 5.14109L14.1796 5.14119L14.3447 5.32893ZM19.9191 2.09082V1.84081L19.9172 1.84083L19.9191 2.09082ZM19.928 2.09082L19.9338 1.84082H19.928V2.09082ZM23.3887 3.04537L23.5385 2.84526L23.5385 2.84523L23.3887 3.04537ZM24.7167 5.33797L24.963 5.29534L24.963 5.29509L24.7167 5.33797ZM17.8119 20.5594L17.6245 20.394L17.6244 20.3941L17.8119 20.5594ZM15.2101 23.0481L15.0597 22.8483L15.0597 22.8483L15.2101 23.0481ZM11.7219 23.0481L11.5715 23.2478L11.5716 23.2479L11.7219 23.0481ZM9.12002 20.5594L9.30755 20.3941L9.3075 20.394L9.12002 20.5594ZM4.00369 12.8805L4.22853 12.7712L4.22853 12.7712L4.00369 12.8805ZM2.21528 5.33797L2.46162 5.38059L2.46162 5.38057L2.21528 5.33797ZM3.5433 3.04537L3.39349 2.84523L3.39345 2.84526L3.5433 3.04537ZM7.00396 2.09082L7.00396 1.84075L6.99818 1.84089L7.00396 2.09082ZM13.4063 9.44602L13.4326 9.69464L13.44 9.69385L13.4474 9.69262L13.4063 9.44602ZM12.9016 9.99999H13.1517L13.1516 9.99411L12.9016 9.99999ZM13.4063 9.44602L13.3801 9.1974L13.3726 9.19819L13.3652 9.19942L13.4063 9.44602ZM13.8501 9.58558L13.6837 9.77221L13.6846 9.77297L13.8501 9.58558ZM14.0338 9.99999L13.7838 9.99297V9.99999H14.0338ZM14.0338 10.2727H13.7838V10.5227H14.0338V10.2727ZM14.8837 10.2727L14.8837 10.5227L14.8873 10.5227L14.8837 10.2727ZM15.2899 10.4293L15.4623 10.2483L15.4614 10.2474L15.2899 10.4293ZM15.2899 11.206L15.1175 11.025L15.1174 11.025L15.2899 11.206ZM14.8837 11.3636L14.8873 11.1136H14.8837V11.3636ZM14.0338 15.7017L13.9937 15.4549L13.7838 15.4891V15.7017H14.0338ZM14.0338 16L13.7838 16L13.7838 16.0038L14.0338 16ZM13.8711 16.3899L13.6968 16.2107L13.6959 16.2116L13.8711 16.3899ZM13.0643 16.3899L13.2396 16.2116L13.2386 16.2107L13.0643 16.3899ZM12.9016 16L13.1516 16.0038V16H12.9016ZM12.9016 15.7273H13.1516V15.4773H12.9016V15.7273ZM12.0517 15.7273L12.0517 15.4772L12.0482 15.4773L12.0517 15.7273ZM11.6456 15.5696L11.818 15.3886L11.818 15.3886L11.6456 15.5696ZM11.6456 14.793L11.474 14.6111L11.4731 14.612L11.6456 14.793ZM12.0517 14.6364L12.0482 14.8864H12.0517V14.6364ZM12.9016 10.2983L12.9417 10.5451L13.1516 10.511V10.2983H12.9016ZM3.00381 2.3848C3.93522 1.68752 5.24426 1.28863 6.99304 1.24994L6.98198 0.750061C5.1672 0.790209 3.74516 1.20522 2.70416 1.98454L3.00381 2.3848ZM1.34729 5.20188C1.54402 4.07083 2.07772 3.07895 3.00392 2.38472L2.70404 1.98463C1.66032 2.76694 1.06967 3.88019 0.854684 5.1162L1.34729 5.20188ZM3.20168 13.2316C1.79868 10.3447 0.951933 7.48644 1.34732 5.20167L0.854648 5.11641C0.431097 7.56389 1.33953 10.5438 2.75197 13.4501L3.20168 13.2316ZM8.44862 21.1014C6.55258 18.9527 4.59895 16.1067 3.20168 13.2316L2.75197 13.4501C4.17014 16.3683 6.14957 19.2517 8.07372 21.4323L8.44862 21.1014ZM11.1728 23.7092C10.324 23.0696 9.3968 22.176 8.44863 21.1014L8.07371 21.4323C9.03569 22.5225 9.9876 23.4421 10.8719 24.1086L11.1728 23.7092ZM13.4648 24.7498C12.7526 24.7498 12.0359 24.3597 11.1728 23.7092L10.8719 24.1086C11.7419 24.7642 12.5746 25.2498 13.4648 25.2498V24.7498ZM15.7568 23.7092C14.8937 24.3597 14.1771 24.7498 13.4648 24.7498V25.2498C14.355 25.2498 15.1878 24.7642 16.0578 24.1086L15.7568 23.7092ZM18.4809 21.1016C17.534 22.1759 16.6057 23.0695 15.7568 23.7092L16.0578 24.1086C16.942 23.4422 17.895 22.5225 18.856 21.4322L18.4809 21.1016ZM23.728 13.2315C22.3298 16.1067 20.376 18.9526 18.481 21.1015L18.856 21.4322C20.779 19.2516 22.7586 16.3683 24.1776 13.4502L23.728 13.2315ZM25.5823 5.20178C25.9788 7.48649 25.131 10.3446 23.728 13.2316L24.1777 13.4501C25.5901 10.5439 26.4997 7.56395 26.075 5.1163L25.5823 5.20178ZM23.9258 2.3848C24.8531 3.07897 25.3867 4.07075 25.5823 5.20165L26.075 5.11642C25.8612 3.88016 25.2704 2.76681 24.2255 1.98454L23.9258 2.3848ZM19.9366 1.24994C21.6855 1.28865 22.9957 1.68759 23.9257 2.38472L24.2256 1.98463C23.1858 1.20521 21.7624 0.790226 19.9477 0.750061L19.9366 1.24994ZM19.9278 1.25H19.9421V0.75H19.9278V1.25ZM13.9482 4.51934C14.8448 3.7186 15.7587 2.90332 16.7472 2.28436C17.7326 1.66736 18.7768 1.25573 19.929 1.25L19.9265 0.750003C18.6511 0.756345 17.5158 1.21315 16.4819 1.86058C15.451 2.50603 14.5056 3.35116 13.6152 4.14641L13.9482 4.51934ZM13.6329 4.80049C13.7377 4.70738 13.8428 4.61347 13.9482 4.51934L13.6152 4.14641C13.5097 4.2406 13.405 4.33412 13.3007 4.42678L13.6329 4.80049ZM12.9892 4.5227C13.0933 4.6157 13.1972 4.70849 13.3007 4.8005L13.6329 4.42678C13.5299 4.33522 13.4264 4.24283 13.3222 4.14977L12.9892 4.5227ZM12.9872 4.52095L12.9892 4.52275L13.3222 4.14972L13.3202 4.14792L12.9872 4.52095ZM12.9855 4.51939L12.9871 4.52085L13.3203 4.14802L13.3186 4.14656L12.9855 4.51939ZM12.9848 4.51882L12.9854 4.5193L13.3187 4.14665L13.3182 4.14618L12.9848 4.51882ZM7.00463 1.25C8.15687 1.25574 9.20099 1.66732 10.1863 2.28423C11.1747 2.90311 12.0884 3.71828 12.985 4.51897L13.318 4.14604C12.4276 3.35084 11.4823 2.50581 10.4516 1.86044C9.41772 1.2131 8.28251 0.756362 7.00712 0.750003L7.00463 1.25ZM7.00477 1.25H7.00587V0.75H7.00477V1.25ZM6.98751 1.25H7.00477V0.75H6.98751V1.25ZM7.01386 1.84082H7.00501V2.34082H7.01386V1.84082ZM12.7581 5.14512C11.8347 4.33395 10.9026 3.51438 9.95997 2.89765C9.01732 2.2809 8.0377 1.8487 7.01579 1.84083L7.01194 2.34081C7.89556 2.34762 8.77894 2.72244 9.68621 3.31605C10.5935 3.90968 11.4982 4.70383 12.4281 5.52075L12.7581 5.14512ZM13.2495 5.57572C13.0856 5.43284 12.9219 5.28906 12.7581 5.14512L12.4281 5.52075C12.5918 5.66458 12.7562 5.80901 12.921 5.95265L13.2495 5.57572ZM13.0864 5.51418H13.0852V6.01418H13.0864V5.51418ZM13.6837 5.57551C13.5607 5.68252 13.3722 5.68196 13.2509 5.57593L12.9219 5.95244C13.2321 6.22354 13.7011 6.22298 14.0118 5.95286L13.6837 5.57551ZM14.1795 5.14131C14.0142 5.2865 13.849 5.43155 13.6835 5.57568L14.012 5.95269C14.1783 5.80779 14.3442 5.66208 14.5094 5.517L14.1795 5.14131ZM14.1795 5.14134L14.1794 5.14141L14.5095 5.51689L14.5096 5.51682L14.1795 5.14134ZM14.1795 5.14126L14.1795 5.14134L14.5096 5.51682L14.5097 5.51675L14.1795 5.14126ZM14.1796 5.14119L14.1795 5.14126L14.5097 5.51675L14.5098 5.51667L14.1796 5.14119ZM19.9172 1.84083C18.896 1.84875 17.9174 2.28026 16.9756 2.8962C16.0339 3.51209 15.1026 4.33064 14.1797 5.14109L14.5097 5.51678C15.439 4.70058 16.3429 3.90745 17.2493 3.31465C18.1556 2.72188 19.0381 2.34766 19.9211 2.34081L19.9172 1.84083ZM19.928 1.84082H19.9191V2.34082H19.928V1.84082ZM23.5385 2.84523C22.7419 2.24893 21.5774 1.87892 19.9338 1.84089L19.9222 2.34075C21.5013 2.37729 22.5524 2.73169 23.2388 3.24551L23.5385 2.84523ZM24.963 5.29509C24.7836 4.26465 24.3407 3.44598 23.5385 2.84526L23.2388 3.24547C23.9218 3.75699 24.3089 4.45321 24.4704 5.38084L24.963 5.29509ZM23.1531 12.9898C24.5159 10.1866 25.3157 7.3336 24.963 5.29534L24.4703 5.38059C24.7949 7.2564 24.0565 9.98791 22.7034 12.7712L23.1531 12.9898ZM17.9994 20.7248C19.852 18.6252 21.7848 15.8044 23.1531 12.9898L22.7034 12.7712C21.3559 15.5431 19.4487 18.3264 17.6245 20.394L17.9994 20.7248ZM15.3605 23.2478C16.1548 22.6498 17.0734 21.7751 17.9995 20.7247L17.6244 20.3941C16.7133 21.4275 15.8193 22.2766 15.0597 22.8483L15.3605 23.2478ZM13.466 24.1588C13.6716 24.1588 13.9548 24.0697 14.2644 23.924C14.5836 23.7737 14.9601 23.5492 15.3605 23.2478L15.0597 22.8483C14.6832 23.1318 14.3359 23.3377 14.0514 23.4716C13.7573 23.61 13.557 23.6588 13.466 23.6588V24.1588ZM11.5716 23.2479C11.9725 23.5492 12.3489 23.7737 12.6679 23.9239C12.9773 24.0697 13.2604 24.1588 13.466 24.1588V23.6588C13.375 23.6588 13.175 23.6101 12.881 23.4716C12.5966 23.3377 12.2492 23.1317 11.8721 22.8482L11.5716 23.2479ZM8.9325 20.7247C9.85851 21.7751 10.7772 22.6498 11.5715 23.2478L11.8722 22.8483C11.1127 22.2766 10.2186 21.4275 9.30755 20.3941L8.9325 20.7247ZM3.77885 12.9898C5.14715 15.8044 7.08021 18.625 8.93255 20.7248L9.3075 20.394C7.48341 18.3262 5.57606 15.5431 4.22853 12.7712L3.77885 12.9898ZM1.96894 5.29534C1.61624 7.33366 2.41608 10.1866 3.77885 12.9898L4.22853 12.7712C2.87546 9.98791 2.13703 7.25646 2.46162 5.38059L1.96894 5.29534ZM3.39345 2.84526C2.59143 3.44585 2.14722 4.2645 1.96893 5.29536L2.46162 5.38057C2.62198 4.45335 3.00999 3.75706 3.69316 3.24548L3.39345 2.84526ZM6.99818 1.84089C5.35452 1.87892 4.19007 2.24893 3.39349 2.84523L3.69312 3.2455C4.37951 2.73169 5.43061 2.37729 7.00975 2.34075L6.99818 1.84089ZM7.00501 1.84082H7.00396V2.34082H7.00501V1.84082ZM13.4665 7.02271C10.0595 7.02271 7.26923 9.69651 7.26923 13H7.76923C7.76923 9.99025 10.3177 7.52271 13.4665 7.52271V7.02271ZM19.6638 13C19.6638 9.69651 16.8736 7.02271 13.4665 7.02271V7.52271C16.6154 7.52271 19.1638 9.99025 19.1638 13H19.6638ZM13.4665 18.9772C16.8736 18.9772 19.6638 16.3034 19.6638 13H19.1638C19.1638 16.0097 16.6154 18.4772 13.4665 18.4772V18.9772ZM7.26923 13C7.26923 16.3034 10.0595 18.9772 13.4665 18.9772V18.4772C10.3177 18.4772 7.76923 16.0097 7.76923 13H7.26923ZM18.5321 13C18.5321 10.2856 16.262 8.11365 13.4669 8.11365V8.61365C16.0039 8.61365 18.0321 10.5794 18.0321 13H18.5321ZM13.4669 17.8864C16.2619 17.8864 18.5321 15.7144 18.5321 13H18.0321C18.0321 15.4206 16.0038 17.3864 13.4669 17.3864V17.8864ZM8.4017 13C8.4017 15.7144 10.6718 17.8864 13.4669 17.8864V17.3864C10.9299 17.3864 8.9017 15.4206 8.9017 13H8.4017ZM13.4669 8.11365C10.6718 8.11365 8.4017 10.2856 8.4017 13H8.9017C8.9017 10.5794 10.9299 8.61365 13.4669 8.61365V8.11365ZM13.38 9.19741C12.9668 9.24111 12.6418 9.58413 12.6517 10.0059L13.1516 9.99411C13.1482 9.84911 13.2615 9.71273 13.4326 9.69464L13.38 9.19741ZM13.3652 9.19942L13.3652 9.19942L13.4474 9.69262L13.4474 9.69262L13.3652 9.19942ZM14.0164 9.39895C13.8421 9.24353 13.6086 9.17328 13.3801 9.1974L13.4325 9.69464C13.5271 9.68466 13.6191 9.71456 13.6837 9.77221L14.0164 9.39895ZM14.2837 10.007C14.2903 9.77195 14.1893 9.55159 14.0156 9.39819L13.6846 9.77297C13.7522 9.83262 13.7862 9.91268 13.7839 9.99297L14.2837 10.007ZM14.2838 10.2727V9.99999H13.7838V10.2727H14.2838ZM14.8837 10.0227H14.0338V10.5227H14.8837V10.0227ZM15.4614 10.2474C15.305 10.0999 15.0958 10.0197 14.8802 10.0227L14.8873 10.5227C14.9749 10.5215 15.0579 10.5542 15.1184 10.6112L15.4614 10.2474ZM15.7081 10.8182C15.7081 10.6025 15.6183 10.3969 15.4623 10.2483L15.1175 10.6103C15.1762 10.6663 15.2081 10.7419 15.2081 10.8182H15.7081ZM15.4623 11.387C15.6179 11.2388 15.7081 11.0343 15.7081 10.8182H15.2081C15.2081 10.8939 15.1766 10.9686 15.1175 11.025L15.4623 11.387ZM14.8802 11.6136C15.0959 11.6166 15.3056 11.5363 15.4624 11.387L15.1174 11.025C15.0573 11.0823 14.9748 11.1149 14.8873 11.1137L14.8802 11.6136ZM13.185 11.6136H14.8837V11.1136H13.185V11.6136ZM12.8683 11.9091C12.8683 11.7598 12.8998 11.7018 12.9231 11.6776C12.9446 11.6552 13.0054 11.6136 13.185 11.6136V11.1136C12.9407 11.1136 12.7182 11.169 12.5623 11.3314C12.4082 11.492 12.3683 11.7068 12.3683 11.9091H12.8683ZM13.4683 12.2045C13.1828 12.2045 13.0317 12.1437 12.9576 12.0875C12.892 12.0375 12.8683 11.9779 12.8683 11.9091H12.3683C12.3683 12.1194 12.4537 12.3325 12.6551 12.4855C12.848 12.6322 13.1218 12.7045 13.4683 12.7045V12.2045ZM15.7004 14.0909C15.7004 12.9766 14.633 12.2045 13.4683 12.2045V12.7045C14.4594 12.7045 15.2004 13.3451 15.2004 14.0909H15.7004ZM14.0739 15.9484C15.0165 15.7952 15.7004 14.9889 15.7004 14.0909H15.2004C15.2004 14.7356 14.7024 15.3397 13.9937 15.4549L14.0739 15.9484ZM14.2838 16V15.7017H13.7838V16H14.2838ZM14.0454 16.5691C14.2002 16.4186 14.287 16.2121 14.2838 15.9962L13.7838 16.0038C13.785 16.0798 13.7546 16.1545 13.6968 16.2107L14.0454 16.5691ZM13.4683 16.8029C13.684 16.8029 13.8923 16.7196 14.0463 16.5682L13.6959 16.2116C13.6374 16.2691 13.5558 16.3029 13.4683 16.3029V16.8029ZM12.8891 16.5682C13.0435 16.7199 13.253 16.8029 13.4683 16.8029V16.3029C13.3803 16.3029 13.2977 16.2687 13.2396 16.2116L12.8891 16.5682ZM12.6517 15.9962C12.6484 16.2121 12.7353 16.4186 12.89 16.5691L13.2386 16.2107C13.1809 16.1545 13.1505 16.0798 13.1516 16.0038L12.6517 15.9962ZM12.6516 15.7273V16H13.1516V15.7273H12.6516ZM12.0517 15.9773H12.9016V15.4773H12.0517V15.9773ZM11.4731 15.7506C11.6299 15.9 11.8395 15.9803 12.0552 15.9772L12.0482 15.4773C11.9607 15.4785 11.8781 15.4459 11.818 15.3886L11.4731 15.7506ZM11.2273 15.1818C11.2273 15.398 11.3176 15.6024 11.4731 15.7506L11.818 15.3886C11.7589 15.3322 11.7273 15.2576 11.7273 15.1818H11.2273ZM11.4731 14.612C11.3172 14.7605 11.2273 14.9662 11.2273 15.1818H11.7273C11.7273 15.1055 11.7592 15.0299 11.818 14.974L11.4731 14.612ZM12.0552 14.3864C11.8396 14.3833 11.6305 14.4635 11.474 14.6111L11.8171 14.9748C11.8775 14.9178 11.9605 14.8851 12.0482 14.8863L12.0552 14.3864ZM13.7505 14.3864H12.0517V14.8864H13.7505V14.3864ZM14.0671 14.0909C14.0671 14.2401 14.0356 14.2981 14.0123 14.3224C13.9909 14.3448 13.9301 14.3864 13.7505 14.3864V14.8864C13.9947 14.8864 14.2173 14.831 14.3731 14.6685C14.5272 14.508 14.5671 14.2932 14.5671 14.0909H14.0671ZM13.4672 13.7954C13.7526 13.7954 13.9038 13.8562 13.9778 13.9125C14.0435 13.9624 14.0671 14.0221 14.0671 14.0909H14.5671C14.5671 13.8806 14.4817 13.6675 14.2804 13.5145C14.0875 13.3678 13.8136 13.2954 13.4672 13.2954V13.7954ZM11.2351 11.9091C11.2351 13.0234 12.3024 13.7954 13.4672 13.7954V13.2954C12.476 13.2954 11.7351 12.6548 11.7351 11.9091H11.2351ZM12.8616 10.0515C11.9178 10.2048 11.2351 11.0113 11.2351 11.9091H11.7351C11.7351 11.2643 12.2321 10.6603 12.9417 10.5451L12.8616 10.0515ZM12.6516 9.99999V10.2983H13.1516V9.99999H12.6516Z" fill="#FF6440"/>
</svg>
