<svg width="130" height="42" viewBox="0 0 130 42" fill="none" xmlns="http://www.w3.org/2000/svg">
<g clip-path="url(#clip0)">
<path d="M33.8217 20.8372C33.9109 20.7636 33.9926 20.69 34.0817 20.6016C36.1902 18.5022 37.4485 15.7093 37.6183 12.7519C37.788 9.79454 36.8573 6.87818 35.0026 4.55537C34.7178 4.19535 34.4102 3.85362 34.0817 3.53224C33.4851 2.93812 32.8252 2.40996 32.1136 1.95705L31.7348 1.72151L31.4154 1.54486L30.851 1.25043C30.6504 1.14913 30.4447 1.05822 30.2346 0.978085L30.0712 0.904478C29.8855 0.830871 29.6998 0.757264 29.5142 0.698379L29.1874 0.59533C29.0955 0.559234 29.0012 0.529715 28.9051 0.507002C28.8403 0.48296 28.7731 0.465692 28.7046 0.455477C28.5977 0.419219 28.4885 0.389717 28.3778 0.367149L27.8951 0.264099C27.6723 0.219935 27.4792 0.175771 27.2192 0.146329L26.7365 0.0874433C25.8698 -0.000865297 24.9963 -0.000865297 24.1297 0.0874433L23.7063 0.146329C23.3201 0.205214 22.9636 0.278821 22.5552 0.367149C22.4442 0.388777 22.335 0.418296 22.2284 0.455477L22.0279 0.507002C21.9315 0.52864 21.8371 0.558184 21.7456 0.59533L21.4189 0.735182C21.2332 0.794068 21.0475 0.867674 20.8618 0.941281C20.6762 1.01489 20.4014 1.13266 20.1786 1.24307L19.7849 1.43445L19.3616 1.66263C19.1759 1.76568 18.9977 1.87609 18.8195 1.99386C18.1096 2.43521 17.4498 2.95097 16.8513 3.53224C16.5246 3.85527 16.2171 4.19689 15.9304 4.55537C14.2109 6.70309 13.2788 9.36612 13.2869 12.1078C13.295 14.8495 14.2428 17.507 15.975 19.6447L16.4206 20.0864C16.5617 20.2483 16.7176 20.4103 16.8736 20.5648C17.0296 20.7194 17.1038 20.7783 17.2153 20.874L20.9287 24.5175C20.9909 24.5798 21.0649 24.6293 21.1465 24.6631C21.2281 24.6968 21.3156 24.7142 21.404 24.7142C21.4924 24.7142 21.58 24.6968 21.6616 24.6631C21.7431 24.6293 21.8172 24.5798 21.8793 24.5175L23.5578 22.8614C23.6834 22.7347 23.7538 22.5642 23.7538 22.3866C23.7538 22.209 23.6834 22.0385 23.5578 21.9118L21.2555 19.6374L19.7255 18.1653L19.5324 17.996C17.9483 16.4192 17.0589 14.2847 17.0589 12.0596C17.0589 9.83445 17.9483 7.69994 19.5324 6.12319L19.7181 5.94654L20.0523 5.65211C20.2454 5.49018 20.4534 5.3356 20.6539 5.18839C20.9626 4.97612 21.2851 4.78432 21.6194 4.61426C21.8351 4.4988 22.0584 4.39797 22.2878 4.31247C22.5148 4.21617 22.748 4.13503 22.9859 4.06957L23.335 3.96652L23.6915 3.88555C23.8088 3.85629 23.9279 3.83417 24.048 3.8193C24.8253 3.68461 25.618 3.65983 26.4023 3.7457H26.7142C26.9073 3.7457 27.1078 3.80458 27.3009 3.84875L27.6129 3.92235C28.1531 4.06001 28.68 4.24475 29.1874 4.4744H29.2616C29.4028 4.56273 29.5513 4.62898 29.6998 4.7173C29.8111 4.77291 29.9178 4.83689 30.0192 4.90868C30.13 4.97054 30.2366 5.03938 30.3385 5.11478C30.5391 5.26199 30.747 5.41657 30.9401 5.5785L31.1926 5.88765L31.4229 6.10847C33.0084 7.68301 33.8989 9.81666 33.8989 12.0412C33.8989 14.2657 33.0084 16.3993 31.4229 17.9739L23.335 26.0264L19.3096 30.0233C19.2475 30.0856 19.1734 30.1351 19.0919 30.1688C19.0103 30.2026 18.9227 30.22 18.8343 30.22C18.7459 30.22 18.6584 30.2026 18.5768 30.1688C18.4952 30.1351 18.4212 30.0856 18.359 30.0233L7.96136 19.7184L6.43143 18.2462L6.23833 18.0769C4.9437 16.8326 4.08462 15.2104 3.78667 13.4476C3.48873 11.6848 3.76754 9.87376 4.58235 8.27922C5.39717 6.68468 6.70526 5.39025 8.3154 4.58517C9.92555 3.78009 11.7533 3.50656 13.5315 3.80458C13.6508 3.82324 13.773 3.80987 13.8853 3.76585C13.9977 3.72184 14.096 3.6488 14.1702 3.55432C14.6975 2.86735 15.2867 2.22926 15.9304 1.64791C16.018 1.56804 16.0828 1.46667 16.1182 1.35404C16.1535 1.2414 16.1583 1.1215 16.1319 1.00647C16.1055 0.891437 16.049 0.785348 15.9679 0.698936C15.8869 0.612523 15.7843 0.548852 15.6705 0.514362C13.1786 -0.231556 10.5111 -0.166157 8.05953 0.700959C5.60794 1.56808 3.50137 3.19124 2.04905 5.33219C0.596719 7.47315 -0.124878 10.0191 -0.00982813 12.5964C0.105222 15.1737 1.05086 17.6466 2.68828 19.6521L3.1339 20.0937C3.27501 20.2557 3.43097 20.4176 3.58694 20.5722C3.7429 20.7268 3.81717 20.7856 3.92857 20.8813L18.3441 35.2199C18.4058 35.2831 18.4796 35.3334 18.5613 35.3678C18.6429 35.4021 18.7307 35.4198 18.8195 35.4198C18.9082 35.4198 18.996 35.4021 19.0776 35.3678C19.1593 35.3334 19.2331 35.2831 19.2948 35.2199L33.7475 20.9034L33.8217 20.8372Z" fill="white"/>
<path d="M47.3755 3.51101C45.8155 1.98173 43.8701 0.895086 41.7423 0.364295C39.6144 -0.166495 37.3818 -0.122003 35.2771 0.493134C35.1633 0.527623 35.0607 0.591295 34.9797 0.677707C34.8986 0.76412 34.8421 0.870208 34.8157 0.985242C34.7893 1.10028 34.7941 1.22017 34.8295 1.33281C34.8648 1.44544 34.9296 1.54682 35.0172 1.62668C35.6632 2.20808 36.2548 2.84614 36.7848 3.53309C36.8582 3.62811 36.9568 3.70111 37.0695 3.74398C37.1823 3.78686 37.3048 3.79794 37.4235 3.77599C39.1896 3.48998 41.0016 3.76689 42.5987 4.56684C44.1958 5.36678 45.4955 6.64847 46.3106 8.22731C47.1257 9.80615 47.4141 11.6007 47.1344 13.3524C46.8546 15.1041 46.0211 16.7226 44.7538 17.9747L32.1282 30.4879L31.9351 30.6866L29.8852 28.6256C29.8231 28.5633 29.7491 28.5138 29.6675 28.4801C29.5859 28.4463 29.4983 28.4289 29.4099 28.4289C29.3215 28.4289 29.234 28.4463 29.1524 28.4801C29.0708 28.5138 28.9968 28.5633 28.9346 28.6256L27.4492 30.0978C27.3854 30.1588 27.3347 30.232 27.3001 30.313C27.2654 30.3939 27.2476 30.4809 27.2476 30.5688C27.2476 30.6567 27.2654 30.7438 27.3001 30.8247C27.3347 30.9056 27.3854 30.9788 27.4492 31.0399L31.6528 35.2281C31.715 35.2905 31.789 35.3399 31.8706 35.3737C31.9522 35.4075 32.0397 35.4248 32.1282 35.4248C32.2166 35.4248 32.3041 35.4075 32.3857 35.3737C32.4673 35.3399 32.5413 35.2905 32.6035 35.2281L47.0562 20.8675L47.1156 20.8233L47.3755 20.5804C49.659 18.3167 50.9418 15.2467 50.9418 12.0457C50.9418 8.84471 49.659 5.77476 47.3755 3.51101Z" fill="white"/>
<path d="M30.1209 36.6936L25.9249 32.535C25.661 32.2734 25.2331 32.2734 24.9691 32.535L20.7731 36.6936C20.5092 36.9552 20.5092 37.3793 20.7731 37.6409L24.9691 41.7995C25.2331 42.0611 25.661 42.0611 25.9249 41.7995L30.1209 37.6409C30.3849 37.3793 30.3849 36.9552 30.1209 36.6936Z" fill="white"/>
<path d="M55.7014 3.14301H56.7709L60.2318 16.9663H60.3655L63.9378 5.15247H65.3564L68.951 17.0032H69.0698L72.5233 3.14301H73.5779L69.7011 18.2103H68.3271L64.7102 6.30809H64.6137L60.9002 18.2103H59.5634L55.7014 3.14301Z" fill="white"/>
<path d="M81.1754 18.4017C80.3867 18.4171 79.5996 18.3255 78.836 18.1293C78.2258 17.9762 77.6625 17.6781 77.1946 17.2608C76.7379 16.8358 76.4001 16.3007 76.2143 15.7077C75.9885 14.9482 75.8833 14.1585 75.9023 13.367V3.14301H76.9272V12.9548C76.9132 13.6974 76.9905 14.4389 77.1575 15.163C77.2743 15.6866 77.5308 16.1696 77.9002 16.5615C78.2641 16.9227 78.7216 17.1774 79.2221 17.2976C79.8665 17.4505 80.5278 17.5222 81.1903 17.511C81.8773 17.5226 82.5632 17.4509 83.2327 17.2976C83.7404 17.179 84.2054 16.9244 84.5769 16.5615C84.9466 16.1698 85.2032 15.6868 85.3196 15.163C85.4903 14.4395 85.5677 13.6975 85.5498 12.9548V3.14301H86.5376V13.3891C86.5566 14.1816 86.4462 14.9721 86.2108 15.7298C86.0172 16.3262 85.6689 16.8618 85.2008 17.2829C84.7152 17.6992 84.1377 17.9967 83.5149 18.1514C82.7498 18.3376 81.963 18.4218 81.1754 18.4017Z" fill="white"/>
<path d="M101.132 3.14301V18.2103H100.084V10.5037H91.4989V18.2103H90.4666V3.14301H91.4989V9.56887H100.084V3.14301H101.132Z" fill="white"/>
<path d="M113.311 13.1462H106.256L104.332 18.2103H103.233L109.086 3.14301H110.571L116.356 18.2103H115.213L113.311 13.1462ZM112.985 12.2555L109.917 4.11461H109.695L106.583 12.2555H112.985Z" fill="white"/>
<path d="M118.458 3.14301H120.1L128.841 16.4511H128.975V3.14301H129.97V18.2103H128.745L119.617 4.18086H119.491V18.2103H118.458V3.14301Z" fill="white"/>
<path d="M55.7014 39.2103C57.2165 38.0031 58.4543 36.953 59.4149 36.0599C60.2202 35.3169 60.9652 34.5121 61.6429 33.653C62.1085 33.0637 62.4724 32.4021 62.7198 31.6951C62.9039 31.1013 62.9965 30.4834 62.9946 29.8622C63.0384 29.4266 62.9815 28.9868 62.8284 28.5762C62.6753 28.1656 62.4299 27.7948 62.1108 27.4921C61.4157 26.9732 60.5588 26.7126 59.6897 26.756C59.2149 26.7566 58.7408 26.791 58.2711 26.8591C57.7702 26.9327 57.2742 27.0359 56.7857 27.1682V26.2114C57.2239 26.1157 57.6844 26.0421 58.1671 25.9832C58.6605 25.9302 59.1563 25.9032 59.6525 25.9022C60.2423 25.8978 60.8306 25.9621 61.4053 26.0936C61.9003 26.2094 62.364 26.4304 62.7644 26.7413C63.1695 27.0624 63.4778 27.4876 63.6556 27.9706C63.8804 28.568 63.9863 29.2028 63.9675 29.8402C63.9731 30.5324 63.8653 31.221 63.6482 31.8791C63.406 32.588 63.0553 33.2558 62.6084 33.8591C62.045 34.6226 61.4136 35.3345 60.722 35.9863C59.9422 36.7224 58.9841 37.591 57.8626 38.5405L57.0011 39.2765V39.3943H64.7251V40.2923H55.7014V39.2103Z" fill="white"/>
<path d="M71.469 40.4837C70.8016 40.4948 70.1376 40.3877 69.5083 40.1672C68.9074 39.9533 68.3884 39.5598 68.0229 39.041C67.5695 38.3745 67.2586 37.623 67.1094 36.8328C66.8874 35.6364 66.7977 34.4196 66.8421 33.204C66.8172 32.0012 66.9242 30.7992 67.1614 29.6193C67.3144 28.8303 67.625 28.0795 68.0749 27.4111C68.4374 26.8862 68.9569 26.4871 69.5603 26.2702C70.8378 25.8482 72.219 25.8482 73.4965 26.2702C74.0987 26.4893 74.6176 26.8879 74.9819 27.4111C75.4292 28.0801 75.7373 28.8308 75.888 29.6193C76.1155 30.8004 76.2176 32.0018 76.1925 33.204C76.2172 34.4086 76.1151 35.6124 75.888 36.796C75.741 37.5856 75.4327 38.3371 74.9819 39.0042C74.615 39.5217 74.0964 39.9148 73.4965 40.1304C72.8484 40.3708 72.161 40.4906 71.469 40.4837ZM71.469 39.6299C72.0201 39.6416 72.5681 39.544 73.0806 39.3428C73.561 39.1331 73.9615 38.7773 74.2244 38.327C74.5644 37.7117 74.7908 37.0412 74.8928 36.347C75.0507 35.3094 75.1227 34.2606 75.1082 33.2114C75.1224 32.1621 75.0504 31.1134 74.8928 30.0757C74.7938 29.3854 74.5672 28.7192 74.2244 28.1104C73.9628 27.6574 73.5621 27.2989 73.0806 27.0873C72.5702 26.8773 72.0215 26.7745 71.469 26.7855C70.9092 26.7734 70.3529 26.8762 69.8351 27.0873C69.3547 27.297 68.9542 27.6527 68.6913 28.103C68.3485 28.7118 68.1219 29.3781 68.0229 30.0683C67.8653 31.106 67.7933 32.1547 67.8075 33.204C67.793 34.2533 67.865 35.302 68.0229 36.3396C68.1249 37.0338 68.3513 37.7044 68.6913 38.3197C68.9484 38.7665 69.3407 39.1218 69.8128 39.3354C70.3397 39.5409 70.903 39.6385 71.469 39.6225V39.6299Z" fill="white"/>
<path d="M78.1082 39.2103C79.6331 38.0032 80.871 36.953 81.8216 36.0599C82.627 35.3169 83.372 34.5121 84.0497 33.653C84.5177 33.0654 84.8818 32.4033 85.1266 31.6951C85.3106 31.1013 85.4033 30.4834 85.4013 29.8623C85.4473 29.4265 85.3916 28.986 85.2383 28.575C85.0851 28.1641 84.8384 27.7935 84.5175 27.4921C83.8225 26.9732 82.9655 26.7127 82.0964 26.756C81.6217 26.7569 81.1476 26.7913 80.6779 26.8591C80.1768 26.9317 79.6807 27.0349 79.1925 27.1682V26.2114C79.6307 26.1157 80.0911 26.0421 80.5665 25.9832C81.0721 25.9291 81.5804 25.9021 82.089 25.9022C82.6788 25.8974 83.2671 25.9617 83.8417 26.0936C84.3367 26.2094 84.8004 26.4304 85.2008 26.7413C85.5923 27.0686 85.8896 27.4927 86.0623 27.9706C86.2807 28.5695 86.384 29.2036 86.3668 29.8402C86.3724 30.5325 86.2646 31.2211 86.0475 31.8791C85.8082 32.5878 85.46 33.2556 85.0151 33.8591C84.4467 34.6208 83.8131 35.3325 83.1213 35.9863C82.339 36.7371 81.3859 37.5885 80.2619 38.5405L79.4004 39.2766V39.3943H87.1318V40.2923H78.1082V39.2103Z" fill="white"/>
<path d="M93.8685 40.4837C93.2011 40.4949 92.5371 40.3877 91.9078 40.1672C91.3069 39.9533 90.7879 39.5598 90.4224 39.041C89.969 38.3745 89.6581 37.623 89.5089 36.8328C89.2721 35.6504 89.1651 34.446 89.1896 33.2408C89.1647 32.038 89.2718 30.836 89.5089 29.6562C89.6619 28.8671 89.9725 28.1163 90.4224 27.4479C90.7849 26.923 91.3044 26.524 91.9078 26.307C93.1853 25.885 94.5665 25.885 95.844 26.307C96.4462 26.5261 96.9651 26.9247 97.3294 27.4479C97.7767 28.1169 98.0848 28.8676 98.2355 29.6562C98.463 30.8372 98.5651 32.0387 98.54 33.2408C98.5647 34.4454 98.4626 35.6492 98.2355 36.8328C98.0734 37.6149 97.7525 38.3562 97.2923 39.0116C96.9254 39.529 96.4068 39.9222 95.8069 40.1377C95.1863 40.3652 94.5301 40.4823 93.8685 40.4837ZM93.8685 39.6299C94.4196 39.6416 94.9676 39.544 95.4801 39.3428C95.9605 39.1331 96.361 38.7773 96.6239 38.327C96.9639 37.7117 97.1903 37.0412 97.2923 36.347C97.4502 35.3094 97.5222 34.2606 97.5076 33.2114C97.5219 32.1621 97.4499 31.1134 97.2923 30.0757C97.1933 29.3854 96.9667 28.7192 96.6239 28.1104C96.361 27.6601 95.9605 27.3044 95.4801 27.0946C94.9697 26.8847 94.421 26.7819 93.8685 26.7928C93.3087 26.7808 92.7524 26.8835 92.2346 27.0946C91.7542 27.3044 91.3537 27.6601 91.0908 28.1104C90.7475 28.7184 90.5232 29.3852 90.4298 30.0757C90.2685 31.113 90.1964 32.162 90.2145 33.2114C90.1962 34.2607 90.2682 35.3098 90.4298 36.347C90.5259 37.0416 90.7499 37.7127 91.0908 38.327C91.3537 38.7773 91.7542 39.1331 92.2346 39.3428C92.755 39.5428 93.3105 39.6379 93.8685 39.6225V39.6299Z" fill="white"/>
</g>
<defs>
<clipPath id="clip0">
<rect width="130" height="42" fill="white"/>
</clipPath>
</defs>
</svg>
