<svg width="239" height="198" viewBox="0 0 239 198" fill="none" xmlns="http://www.w3.org/2000/svg">
<path d="M158.026 98.2376C158.442 97.8906 158.824 97.5436 159.241 97.1272C169.092 87.2301 174.971 74.0633 175.764 60.1213C176.557 46.1794 172.209 32.4309 163.543 21.4805C162.213 19.7832 160.775 18.1722 159.241 16.6571C156.453 13.8563 153.37 11.3664 150.045 9.23127L148.275 8.12086L146.783 7.28805L144.146 5.90004C143.209 5.42247 142.247 4.99392 141.266 4.61612L140.502 4.26912C139.635 3.92212 138.767 3.57511 137.9 3.29751L136.373 2.81171C135.944 2.64154 135.503 2.50238 135.054 2.3953C134.751 2.28197 134.437 2.20056 134.117 2.1524C133.618 1.98147 133.108 1.84239 132.591 1.736L130.335 1.25019C129.294 1.04199 128.392 0.83379 127.177 0.694989L124.922 0.417386C120.873 0.00107381 116.791 0.00107381 112.742 0.417386L110.764 0.694989C108.96 0.972591 107.294 1.31959 105.386 1.736C104.867 1.83796 104.357 1.97712 103.859 2.1524L102.922 2.3953C102.472 2.49731 102.031 2.63659 101.603 2.81171L100.076 3.47101C99.209 3.74862 98.3415 4.09562 97.474 4.44262C96.6064 4.78963 95.3225 5.34483 94.2815 5.86534L92.4424 6.76754L90.4645 7.84325C89.597 8.32906 88.7642 8.84956 87.9314 9.40477C84.615 11.4854 81.532 13.9169 78.7358 16.6571C77.2091 18.18 75.7723 19.7905 74.433 21.4805C66.3991 31.6054 62.044 44.1597 62.0818 57.0848C62.1197 70.0098 66.5482 82.5384 74.6411 92.6161L76.7232 94.6981C77.3825 95.4615 78.1112 96.225 78.8399 96.9537C79.5686 97.6824 79.9156 97.96 80.4361 98.4111L97.7863 115.588C98.0767 115.882 98.4225 116.115 98.8038 116.274C99.185 116.433 99.594 116.515 100.007 116.515C100.42 116.515 100.829 116.433 101.21 116.274C101.592 116.115 101.937 115.882 102.228 115.588L110.07 107.78C110.657 107.183 110.986 106.379 110.986 105.542C110.986 104.705 110.657 103.901 110.07 103.304L99.3131 92.5814L92.1648 85.6414L91.2626 84.8433C83.861 77.41 79.7054 67.3473 79.7054 56.8574C79.7054 46.3676 83.861 36.3049 91.2626 28.8716L92.1301 28.0388L93.6916 26.6508C94.5938 25.8874 95.5654 25.1587 96.5023 24.4647C97.9447 23.464 99.4517 22.5598 101.013 21.7581C102.021 21.2138 103.064 20.7385 104.136 20.3354C105.197 19.8814 106.287 19.4989 107.398 19.1903L109.029 18.7045L110.695 18.3228C111.243 18.1848 111.799 18.0805 112.36 18.0104C115.992 17.3755 119.696 17.2586 123.36 17.6634H124.818C125.72 17.6634 126.657 17.941 127.559 18.1492L129.017 18.4963C131.541 19.1452 134.002 20.0161 136.373 21.0988H136.72C137.379 21.5152 138.073 21.8275 138.767 22.2439C139.287 22.506 139.786 22.8076 140.259 23.1461C140.777 23.4377 141.275 23.7622 141.752 24.1177C142.688 24.8117 143.66 25.5404 144.562 26.3038L145.742 27.7612L146.818 28.8022C154.226 36.2251 158.386 46.2837 158.386 56.7707C158.386 67.2577 154.226 77.3163 146.818 84.7392L109.029 122.701L90.2216 141.544C89.9311 141.837 89.5853 142.071 89.2041 142.23C88.8229 142.389 88.4139 142.471 88.0008 142.471C87.5877 142.471 87.1787 142.389 86.7975 142.23C86.4162 142.071 86.0704 141.837 85.7799 141.544L37.1995 92.9631L30.0512 86.0231L29.149 85.225C23.1002 79.3588 19.0863 71.7115 17.6942 63.4011C16.3022 55.0907 17.6048 46.5529 21.4119 39.0358C25.2189 31.5186 31.3306 25.4164 38.8537 21.621C46.3767 17.8256 54.9165 16.5361 63.2247 17.941C63.7822 18.029 64.3531 17.966 64.8779 17.7585C65.4027 17.551 65.8624 17.2066 66.209 16.7612C68.6726 13.5227 71.4252 10.5145 74.433 7.77385C74.8423 7.39736 75.1449 6.91945 75.3102 6.38846C75.4755 5.85748 75.4977 5.29224 75.3744 4.74994C75.2512 4.20764 74.9869 3.70751 74.6083 3.30014C74.2297 2.89276 73.7503 2.5926 73.2184 2.43C61.5758 -1.08647 49.1126 -0.77816 37.6581 3.30967C26.2037 7.39751 16.3613 15.0496 9.5756 25.1426C2.78994 35.2357 -0.581553 47.2382 -0.0440076 59.3884C0.493538 71.5386 4.91181 83.1964 12.5623 92.6508L14.6443 94.7328C15.3036 95.4963 16.0323 96.2597 16.761 96.9884C17.4897 97.7171 17.8367 97.9947 18.3572 98.4458L85.7106 166.042C85.9986 166.34 86.3436 166.577 86.7252 166.739C87.1067 166.901 87.5169 166.984 87.9314 166.984C88.3458 166.984 88.7561 166.901 89.1376 166.739C89.5191 166.577 89.8642 166.34 90.1522 166.042L157.679 98.5499L158.026 98.2376Z" fill="white"/>
<path d="M221.354 16.5521C214.065 9.34262 204.975 4.21985 195.033 1.71756C185.091 -0.78474 174.66 -0.574994 164.827 2.32494C164.295 2.48753 163.815 2.7877 163.437 3.19507C163.058 3.60244 162.794 4.10258 162.671 4.64488C162.547 5.18718 162.57 5.75241 162.735 6.2834C162.9 6.81439 163.203 7.2923 163.612 7.66879C166.63 10.4097 169.394 13.4177 171.871 16.6562C172.214 17.1041 172.674 17.4482 173.201 17.6504C173.728 17.8525 174.3 17.9047 174.855 17.8013C183.106 16.453 191.573 17.7584 199.035 21.5295C206.497 25.3007 212.569 31.343 216.378 38.7861C220.186 46.2292 221.534 54.689 220.227 62.947C218.92 71.205 215.025 78.8351 209.104 84.7382L150.114 143.729L149.212 144.666L139.634 134.95C139.344 134.656 138.998 134.423 138.617 134.263C138.236 134.104 137.827 134.022 137.413 134.022C137 134.022 136.591 134.104 136.21 134.263C135.829 134.423 135.483 134.656 135.193 134.95L128.253 141.89C127.955 142.178 127.718 142.523 127.556 142.904C127.394 143.286 127.31 143.696 127.31 144.11C127.31 144.525 127.394 144.935 127.556 145.317C127.718 145.698 127.955 146.043 128.253 146.331L147.893 166.076C148.183 166.37 148.529 166.603 148.91 166.762C149.292 166.921 149.701 167.003 150.114 167.003C150.527 167.003 150.936 166.921 151.317 166.762C151.698 166.603 152.044 166.37 152.335 166.076L219.861 98.3754L220.139 98.1672L221.354 97.0221C232.023 86.3501 238.016 71.8775 238.016 56.7871C238.016 41.6966 232.023 27.2241 221.354 16.5521Z" fill="white"/>
<path d="M140.734 172.984L121.129 153.379C119.896 152.146 117.896 152.146 116.663 153.379L97.0584 172.984C95.8252 174.217 95.8252 176.217 97.0584 177.45L116.663 197.055C117.896 198.288 119.896 198.288 121.129 197.055L140.734 177.45C141.967 176.217 141.967 174.217 140.734 172.984Z" fill="white"/>
</svg>
